HIERARCHY
ROOT Hips
{
 OFFSET 0.000000 0.000000 0.000000
 CHANNELS 6 Xposition Yposition Zposition Yrotation Xrotation Zrotation
 JOINT Chest
 {
  OFFSET 0.000000 9.581000 -0.001100
  CHANNELS 3 Yrotation Xrotation Zrotation
  JOINT Chest2
  {
   OFFSET 0.000000 9.561100 0.002200
   CHANNELS 3 Yrotation Xrotation Zrotation
   JOINT Chest3
   {
    OFFSET 0.000000 9.521100 0.000000
    CHANNELS 3 Yrotation Xrotation Zrotation
    JOINT Chest4
    {
     OFFSET 0.000000 9.511400 0.000000
     CHANNELS 3 Yrotation Xrotation Zrotation
     JOINT Neck
     {
      OFFSET 0.000000 14.375100 0.000000
      CHANNELS 3 Yrotation Xrotation Zrotation
      JOINT Head
      {
       OFFSET 0.000000 8.901200 0.004600
       CHANNELS 3 Yrotation Xrotation Zrotation
       End Site
       {
        OFFSET 0.000000 16.962200 0.002400
       }
      }
     }
     JOINT RightCollar
     {
      OFFSET -2.920100 9.518800 0.000000
      CHANNELS 3 Yrotation Xrotation Zrotation
      JOINT RightShoulder
      {
       OFFSET -13.664500 0.000000 0.000000
       CHANNELS 3 Yrotation Xrotation Zrotation
       JOINT RightElbow
       {
        OFFSET 0.000000 -29.999200 0.000000
        CHANNELS 3 Yrotation Xrotation Zrotation
        JOINT RightWrist
        {
         OFFSET 0.000000 -24.253600 0.000000
         CHANNELS 3 Yrotation Xrotation Zrotation
         End Site
         {
          OFFSET 0.000000 -17.918900 0.000000
         }
        }
       }
      }
     }
     JOINT LeftCollar
     {
      OFFSET 2.920100 9.518800 0.000000
      CHANNELS 3 Yrotation Xrotation Zrotation
      JOINT LeftShoulder
      {
       OFFSET 13.664500 0.000000 0.000000
       CHANNELS 3 Yrotation Xrotation Zrotation
       JOINT LeftElbow
       {
        OFFSET 0.000000 -29.999200 0.000000
        CHANNELS 3 Yrotation Xrotation Zrotation
        JOINT LeftWrist
        {
         OFFSET 0.000000 -24.253600 0.000000
         CHANNELS 3 Yrotation Xrotation Zrotation
         End Site
         {
          OFFSET 0.000000 -17.918900 0.000000
         }
        }
       }
      }
     }
    }
   }
  }
 }
 JOINT RightHip
 {
  OFFSET -7.797300 0.005300 0.000500
  CHANNELS 3 Yrotation Xrotation Zrotation
  JOINT RightKnee
  {
   OFFSET 0.000000 -40.663400 -0.000500
   CHANNELS 3 Yrotation Xrotation Zrotation
   JOINT RightAnkle
   {
    OFFSET 0.000000 -39.523700 -0.000900
    CHANNELS 3 Yrotation Xrotation Zrotation
    JOINT RightToe
    {
     OFFSET 0.000000 -6.418000 14.485300
     CHANNELS 3 Yrotation Xrotation Zrotation
     End Site
     {
      OFFSET 0.000000 -1.465200 6.326400
     }
    }
   }
  }
 }
 JOINT LeftHip
 {
  OFFSET 7.797300 0.005300 0.000500
  CHANNELS 3 Yrotation Xrotation Zrotation
  JOINT LeftKnee
  {
   OFFSET 0.000000 -40.663400 -0.000500
   CHANNELS 3 Yrotation Xrotation Zrotation
   JOINT LeftAnkle
   {
    OFFSET 0.000000 -39.523700 -0.000900
    CHANNELS 3 Yrotation Xrotation Zrotation
    JOINT LeftToe
    {
     OFFSET 0.000000 -6.418000 14.485300
     CHANNELS 3 Yrotation Xrotation Zrotation
     End Site
     {
      OFFSET 0.000000 -1.465200 6.326400
     }
    }
   }
  }
 }
}
MOTION
Frames: 8
Frame Time: 0.008333
-22.533562 126.410648 61.159906 178.332405 -28.195678 -2.958267 -0.444246 21.587279 0.426454 -0.068312 2.901663 0.061406 -0.109832 4.726195 0.098407 -0.391242 18.365576 0.339776 3.977825 15.092686 -1.729363 4.655900 -9.801674 -2.743821 -5.641891 -2.104115 0.642171 -2.266211 -6.121099 -3.697941 -68.712869 -6.348549 101.890539 -35.109146 -5.972831 1.600850 -6.531075 -0.417245 0.439610 8.521808 -8.243788 6.962608 73.720605 -28.697525 -109.737448 25.756666 -22.882633 3.404452 -10.446951 -50.298325 6.088920 -161.275975 74.356284 -155.515029 10.740792 -21.936962 -9.240435 -0.020207 -0.032337 -0.008949 -13.829334 -53.331088 -1.799333 32.823069 63.194817 25.513077 -1.060460 37.322713 0.171489 0.119680 0.025495 0.053048
-22.533121 126.409046 61.161516 178.310359 -28.195357 -2.984283 -0.488505 21.596038 0.420347 -0.051166 2.904671 0.065746 -0.130557 4.738735 0.093634 -0.399375 18.381080 0.334853 4.028737 15.069715 -1.746038 4.650188 -9.817784 -2.761185 -5.593932 -2.146040 0.648727 -2.217878 -6.022075 -3.589404 -68.804270 -6.402220 101.909451 -35.116316 -5.999507 1.559912 -6.550591 -0.481738 0.396713 8.383003 -8.245128 6.951676 73.693339 -28.671246 -109.682815 25.765353 -22.889033 3.432836 -10.463982 -50.293695 6.103398 -161.248781 74.333513 -155.381122 10.769513 -21.945384 -9.345752 0.044726 -0.028752 0.019806 -14.109595 -53.464513 -1.615223 33.088519 63.240400 25.787993 -1.088601 37.634882 0.142849 -0.014296 -0.019767 -0.006333
-22.530048 126.408136 61.161712 178.257108 -28.201594 -3.016449 -0.497001 21.609758 0.433754 0.003162 2.899515 0.080333 -0.150024 4.745842 0.089152 -0.442658 18.398495 0.321843 4.040610 15.103871 -1.753875 4.676908 -9.771261 -2.784410 -5.545613 -2.196313 0.658133 -2.140934 -5.916752 -3.491181 -68.904118 -6.455629 101.912679 -35.120541 -6.040136 1.511449 -6.580800 -0.541251 0.367040 8.279980 -8.233558 6.921260 73.656007 -28.653085 -109.631518 25.775557 -22.891679 3.464108 -10.480908 -50.280527 6.174927 -161.187795 74.312109 -155.260603 10.767813 -21.956650 -9.391903 0.083731 -0.030512 0.037076 -14.350387 -53.565077 -1.457264 33.475535 63.223822 26.197375 -1.141972 37.918544 0.108593 -0.147672 -0.084056 -0.065348
-22.528742 126.407903 61.160454 178.147585 -28.213802 -3.013449 -0.456506 21.626691 0.437027 0.001225 2.903166 0.082225 -0.167333 4.750007 0.079660 -0.423450 18.397256 0.316774 4.053125 15.161199 -1.754435 4.712921 -9.716197 -2.795900 -5.523763 -2.286367 0.696460 -2.018179 -5.773047 -3.430090 -69.004036 -6.515060 101.901681 -35.118419 -6.087592 1.459029 -6.563002 -0.573537 0.357905 8.152800 -8.233309 6.864391 73.608167 -28.636572 -109.580469 25.782717 -22.893603 3.491569 -10.428067 -50.261776 6.207384 -161.216760 74.309007 -155.235092 10.810162 -21.979320 -9.436402 0.091586 -0.009170 0.040566 -14.468973 -53.629959 -1.363019 33.932004 63.173076 26.650703 -1.171277 38.119461 0.139495 -0.294823 -0.133305 -0.130363
-22.532376 126.407255 61.159817 178.086100 -28.212547 -3.002900 -0.468254 21.630789 0.406530 -0.069883 2.912015 0.057351 -0.112411 4.742190 0.091634 -0.404033 18.392056 0.311067 4.078456 15.213606 -1.750883 4.739832 -9.659547 -2.798311 -5.495338 -2.353285 0.729001 -1.890667 -5.657635 -3.372168 -69.098282 -6.581308 101.878918 -35.108209 -6.129917 1.397465 -6.623176 -0.625558 0.351225 8.124637 -8.201985 6.809737 73.545695 -28.620367 -109.529607 25.786185 -22.901462 3.509279 -10.385416 -50.252667 6.190757 -161.298751 74.315543 -155.256866 10.844576 -22.006065 -9.490731 0.098752 0.011808 0.043757 -14.500946 -53.665702 -1.336166 34.162920 63.141165 26.878682 -1.283036 38.196435 0.061380 -0.308719 -0.119315 -0.136533
-22.533936 126.406572 61.160596 178.034448 -28.198915 -3.006285 -0.448310 21.618529 0.410968 -0.069765 2.911120 0.056523 -0.112305 4.740830 0.090324 -0.439821 18.384541 0.291984 4.113496 15.256439 -1.745844 4.754672 -9.599734 -2.795637 -5.466221 -2.401335 0.756055 -1.767317 -5.571574 -3.323104 -69.178865 -6.647876 101.853969 -35.084178 -6.159383 1.318385 -6.628251 -0.648827 0.351352 8.061191 -8.192126 6.742802 73.466752 -28.606233 -109.474820 25.788076 -22.915407 3.515561 -10.365249 -50.251893 6.180689 -161.464003 74.335624 -155.352192 10.864869 -22.021519 -9.550879 0.100118 0.022875 0.044371 -14.540341 -53.699037 -1.301460 34.382626 63.103450 27.093864 -1.419520 38.239668 -0.043960 -0.285500 -0.112811 -0.126278
-22.540978 126.406595 61.160596 177.990537 -28.187713 -2.975085 -0.491999 21.609001 0.343302 -0.029756 2.909474 0.070250 -0.154052 4.733512 0.074499 -0.424582 18.377468 0.289821 4.135911 15.296154 -1.742285 4.778424 -9.556752 -2.797329 -5.443825 -2.443264 0.775576 -1.669186 -5.502707 -3.295240 -69.231211 -6.694719 101.839278 -35.042915 -6.167309 1.219951 -6.609892 -0.655972 0.352739 7.986922 -8.197614 6.671718 73.377084 -28.590130 -109.412280 25.791276 -22.928726 3.517192 -10.278031 -50.251070 6.055971 -161.839618 74.385206 -155.651206 10.918185 -22.033117 -9.594656 0.035394 0.041932 0.015692 -14.503191 -53.716197 -1.373893 34.680352 63.016316 27.395394 -1.644824 38.235099 -0.190994 -0.216544 -0.084715 -0.095818
-22.547395 126.408707 61.158155 177.933053 -28.196659 -2.934444 -0.512413 21.614444 0.282554 -0.022453 2.909679 0.070944 -0.164132 4.724667 0.070469 -0.415528 18.372362 0.285857 4.146236 15.330728 -1.740926 4.819449 -9.548536 -2.806318 -5.424364 -2.482377 0.786587 -1.611821 -5.444947 -3.292367 -69.176881 -6.722163 101.790905 -34.994409 -6.180748 1.185918 -6.626995 -0.678788 0.353777 7.957632 -8.191998 6.607142 73.280198 -28.567017 -109.345423 25.797875 -22.939961 3.519671 -10.177140 -50.240462 5.957104 -162.179835 74.426914 -155.930614 10.911771 -22.028153 -9.618565 0.020276 0.032509 0.008988 -14.246916 -53.631138 -1.572185 34.675408 62.906124 27.466796 -1.867746 38.150000 -0.335064 -0.108935 -0.001354 -0.048264
